PathFileType	4	(X/Y/Z)	D:\TRACE\spot_10-12-23\spot_arm_body_motion_1_9-platform.trc
DataRate	CameraRate	NumFrames	NumMarkers	Units	OrigDataRate	OrigDataStartFrame	OrigNumFrames
100.00	100.00	      74	5	mm	100.00	4376	      7000
Frame#	Time	Left_Front			Right_Front			Left_Aft			Right_Aft			Post			
		X1	Y1	Z1	X2	Y2	Z2	X3	Y3	Z3	X4	Y4	Z4	X5	Y5	Z5	

4376	43.750	-732.65991	-8.31682	-655.47241	834.68231	-9.78458	-631.04510	-664.01752	25.08404	482.56903	743.08801	26.06972	584.96082	56.18683	710.29730	-987.40546	
4377	43.760	-732.54596	-8.13924	-655.38940	834.71094	-9.52456	-631.00452	-664.02161	24.93273	482.62109	743.11060	25.94587	585.02313	56.17104	710.71246	-986.90216	
4378	43.770	-732.49036	-7.93236	-655.30341	834.49188	-9.41221	-630.95020	-664.03235	24.76342	482.67899	743.14856	25.78277	585.06158	56.21587	711.14258	-986.56354	
4379	43.780	-732.27136	-7.93343	-655.51270	834.62848	-8.89968	-630.85968	-664.07971	24.56816	482.75949	743.16272	25.54717	585.18201	56.44202	711.58435	-986.12347	
4380	43.790	-732.54584	-7.52495	-655.24542	834.71429	-8.62231	-630.77789	-664.05005	24.38389	482.84183	743.16650	25.29554	585.26453	55.27108	711.90820	-985.49530	
4381	43.800	-732.66333	-6.99904	-655.22748	834.73651	-8.35551	-630.70917	-664.01080	24.18342	482.95059	743.17590	24.98818	585.39581	55.29173	712.25006	-984.97174	
4382	43.810	-732.75934	-6.35412	-655.21545	834.82202	-8.12014	-630.66626	-663.97662	23.95756	483.03757	743.17810	24.72044	585.47614	55.41284	712.64166	-984.62311	
4383	43.820	-732.78595	-5.97742	-655.10474	834.74457	-7.80832	-630.61658	-663.99713	23.79933	483.10767	743.12024	24.49360	585.49451	55.33901	713.04877	-984.37585	
4384	43.830	-732.82990	-6.09482	-655.05151	834.78900	-7.84933	-630.53027	-663.95831	23.75203	483.17032	743.07507	24.37127	585.52643	55.28932	713.43286	-984.15796	
4385	43.840	-732.90765	-6.12176	-655.00842	834.71307	-7.71384	-630.42737	-664.01642	23.51744	483.23962	742.97266	24.15961	585.53998	55.27826	713.74457	-983.98560	
4386	43.850	-732.99017	-5.66299	-654.91724	834.45221	-7.27911	-630.41650	-664.09888	23.20084	483.28732	742.85846	23.90735	585.57013	55.25784	713.98804	-983.90137	
4387	43.860	-733.06238	-5.33318	-654.82751	834.21155	-6.98987	-630.42462	-664.33521	22.94877	483.36569	742.63611	23.60152	585.57446	55.09353	714.44940	-983.77472	
4388	43.870	-733.27191	-4.95991	-654.73737	833.98877	-6.75127	-630.34106	-664.58459	22.79677	483.42075	742.40161	23.41807	585.36566	54.68685	715.09045	-983.53650	
4389	43.880	-733.39685	-4.71666	-654.72675	833.78198	-6.41748	-630.29254	-664.85156	22.59646	483.46054	742.23547	23.27421	585.73511	54.19373	715.68970	-983.26862	
4390	43.890	-733.54639	-4.55940	-654.72180	833.48340	-5.94639	-630.25964	-665.14331	22.48516	483.48111	741.97516	23.02807	585.83179	53.87884	716.10498	-983.02344	
4391	43.900	-733.75720	-4.38443	-654.67365	833.29529	-5.55267	-630.20581	-665.58240	22.19615	483.52908	741.74225	22.65809	585.92719	53.91761	716.53406	-982.66461	
4392	43.910	-734.20587	-4.05339	-654.45709	833.05988	-5.38978	-630.13934	-665.68127	21.99460	483.53796	741.55481	22.32551	586.03607	53.67616	717.02173	-982.17963	
4393	43.920	-734.32001	-3.72124	-654.40741	832.86914	-5.22690	-630.07507	-665.83258	21.79247	483.64612	741.32813	22.11275	585.86932	53.22523	717.48517	-981.52887	
4394	43.930	-734.74811	-3.39002	-654.40643	832.59241	-4.84954	-629.95398	-666.15338	21.67654	483.77756	740.91846	21.89557	585.95453	52.98879	717.83881	-980.95898	
4395	43.940	-735.19458	-3.08329	-654.41913	832.19385	-4.41433	-629.87482	-666.46759	21.70115	483.77917	740.51044	21.71877	586.01642	52.62548	718.18115	-980.31000	
4396	43.950	-735.54938	-2.79620	-654.35284	831.85040	-4.27329	-629.85089	-666.90820	21.45728	483.78174	740.06793	21.46095	585.62897	52.25014	718.58380	-979.68073	
4397	43.960	-735.87323	-2.38811	-654.36053	831.52533	-4.16074	-629.79108	-667.38501	21.23041	483.83325	739.91272	21.28339	586.29742	51.97268	719.06122	-979.20239	
4398	43.970	-736.17413	-2.07762	-654.28943	831.19489	-3.87239	-629.75342	-667.68280	20.97977	483.98175	739.59930	20.94003	586.30188	51.48275	719.48883	-978.79004	
4399	43.980	-736.49780	-1.77389	-654.23621	830.73279	-3.42213	-629.73492	-667.95953	20.82282	484.09756	739.20941	20.76326	586.34052	51.18999	719.80505	-978.48621	
4400	43.990	-736.86005	-1.50285	-654.12671	830.31439	-3.08080	-629.73730	-668.28290	20.61116	484.17328	738.71521	20.58875	586.35596	50.62738	720.23981	-978.18201	
4401	44.000	-737.32428	-1.20704	-653.96448	829.87939	-2.85033	-629.65326	-668.78735	20.35860	484.25903	738.18060	20.19308	586.29211	50.01683	720.91748	-978.01953	
4402	44.010	-737.88403	-0.83835	-653.84613	829.39587	-2.51647	-629.58258	-669.32452	19.94317	484.39026	737.80670	19.88903	586.36780	49.74791	721.26282	-977.80847	
4403	44.020	-738.32806	-0.60776	-653.84448	828.90674	-2.15527	-629.49200	-669.72418	19.67226	484.31271	737.49933	19.70510	586.71722	49.49133	721.76862	-977.77325	
4404	44.030	-738.70978	-0.28861	-653.84686	828.52466	-1.78636	-629.44244	-670.16882	19.50113	484.38071	737.04852	19.47014	586.83563	49.07677	722.29407	-977.55933	
4405	44.040	-739.30737	0.15984	-653.75165	828.07092	-1.39235	-629.37262	-670.56177	19.34879	484.45734	736.50848	19.37189	586.87683	48.50359	722.85114	-977.12494	
4406	44.050	-739.84814	0.54668	-653.55841	827.53845	-1.10122	-629.23315	-671.00513	19.19730	484.57587	735.89221	19.09043	586.97644	48.08052	723.37573	-976.71478	
4407	44.060	-740.28217	0.74117	-653.47388	827.07977	-0.88222	-629.13184	-671.61353	18.98468	484.73065	735.30322	18.64415	586.90216	47.71173	723.67426	-976.36621	
4408	44.070	-740.52832	0.79702	-653.45538	826.62787	-0.65568	-629.12274	-672.25702	18.66869	484.89120	734.88092	18.51202	586.86700	47.07428	724.04700	-975.72723	
4409	44.080	-741.01251	1.14806	-653.41644	826.01306	-0.38159	-628.98669	-672.64868	18.58028	484.97351	734.62061	18.33322	587.11249	46.50290	724.59052	-975.07996	
4410	44.090	-741.77344	1.79781	-653.37958	825.58606	-0.01179	-628.85394	-673.04028	18.41503	485.06863	734.07599	18.11952	587.15540	46.12552	725.24353	-974.63641	
4411	44.100	-742.48224	2.40471	-653.47272	825.10840	0.39733	-628.86041	-673.54834	18.19679	485.04953	733.35706	17.83654	587.20319	45.24772	725.71606	-973.95496	
4412	44.110	-742.96381	2.74601	-653.42737	824.47443	0.72337	-628.78650	-674.20569	18.02293	485.09247	732.67059	17.40615	587.13574	44.92852	725.96497	-973.52368	
4413	44.120	-743.38867	2.76621	-653.35883	823.88275	0.96530	-628.68237	-674.81396	17.80287	485.16428	732.19983	17.24914	587.42719	44.30139	726.45337	-972.91864	
4414	44.130	-743.99518	2.92176	-653.20526	823.31787	1.18352	-628.59979	-675.34033	17.46409	485.23505	731.62646	17.00723	587.39014	43.73681	727.04156	-972.27655	
4415	44.140	-744.57312	3.39818	-653.01385	822.85406	1.51551	-628.62622	-675.91644	17.32116	485.23715	731.17780	16.79807	587.40686	43.29414	727.47144	-971.65649	
4416	44.150	-745.11298	3.76822	-652.97009	822.10706	2.11412	-628.64471	-676.44550	17.16491	485.29584	730.52100	16.46520	587.48199	42.83997	727.97046	-971.77429	
4417	44.160	-745.89221	4.20896	-653.02307	821.45319	2.36688	-628.50842	-677.14722	16.91577	485.41794	729.92670	16.02703	587.63794	42.09509	728.64502	-971.43121	
4418	44.170	-746.46857	4.48731	-652.85248	820.87128	2.55759	-628.41266	-678.03796	16.52703	485.55243	729.12439	15.67487	587.56995	41.46416	729.23425	-971.08203	
4419	44.180	-747.00073	4.60812	-652.74677	820.16821	2.97788	-628.33704	-678.40503	16.35282	485.60706	728.58496	15.52149	587.75806	40.91687	729.72412	-970.91846	
4420	44.190	-747.71918	5.12671	-652.64038	819.51587	3.44428	-628.26416	-679.13770	16.08052	485.66870	727.88348	15.13086	587.84534	40.25139	730.26556	-970.61005	
4421	44.200	-748.23499	5.71544	-652.60339	818.87720	3.81406	-628.21033	-679.83887	15.82521	485.70569	727.19873	14.82668	587.94733	39.29456	731.03839	-970.12177	
4422	44.210	-748.96265	6.11502	-652.58069	818.24182	4.19568	-628.06720	-680.36530	15.69424	485.84006	726.61755	14.54989	587.86194	38.46561	731.59131	-969.53308	
4423	44.220	-749.65601	6.45430	-652.51660	817.62744	4.55095	-627.95911	-681.04431	15.35208	485.94107	725.96399	14.19459	587.98260	37.84716	731.96893	-968.94769	
4424	44.230	-750.50653	6.78621	-652.37622	816.90814	4.94405	-627.89722	-681.90997	15.04800	486.03513	725.30646	13.97612	588.25909	37.29469	732.41541	-968.38928	
4425	44.240	-751.22375	7.14372	-652.29028	816.16882	5.23545	-627.86487	-682.56586	14.70816	486.22687	724.45264	13.58948	588.30408	36.51661	733.05365	-967.66028	
4426	44.250	-751.74017	7.45722	-652.17297	815.42462	5.61076	-627.77252	-683.15125	14.51051	486.24448	723.72290	13.30931	588.16284	35.87966	733.48602	-966.96545	
4427	44.260	-752.60504	7.92061	-652.12671	814.80579	5.97008	-627.72321	-683.87628	14.31203	486.30682	722.95581	13.11648	588.28406	35.22576	733.99316	-966.37311	
4428	44.270	-753.38464	8.20355	-652.20319	813.98474	6.37417	-627.61829	-684.95789	14.15427	486.52133	722.15259	12.99693	588.76782	34.29580	734.42731	-965.51007	
4429	44.280	-754.14594	8.37018	-652.11664	813.14655	6.68799	-627.59149	-685.47137	13.77492	486.38403	721.08398	12.54996	588.85065	33.53880	735.17584	-965.41840	
4430	44.290	-754.83472	8.68080	-651.83392	812.45282	7.05202	-627.51874	-686.15912	13.58541	486.42142	720.14911	12.16005	588.90540	32.74403	735.62579	-965.03308	
4431	44.300	-755.65448	9.11455	-651.67035	811.78235	7.46969	-627.37000	-687.01654	13.47415	486.54742	719.92444	12.00020	588.91370	31.99444	736.13544	-964.62622	
4432	44.310	-756.30383	9.46925	-651.82953	810.98572	7.85074	-627.33142	-687.74585	13.19860	486.70663	719.11932	11.89698	589.06726	31.36978	736.91553	-964.42792	
4433	44.320	-757.27411	10.06571	-651.79962	810.19440	8.36472	-627.19635	-688.41351	12.92294	486.76538	718.29742	11.56528	589.18964	30.74600	737.39667	-964.21936	
4434	44.330	-758.07507	10.61009	-651.54846	809.44702	8.68606	-627.08167	-689.36151	12.60144	486.93787	717.53778	11.04813	589.38324	29.72338	737.93121	-963.76343	
4435	44.340	-758.73584	10.84434	-651.55127	808.58167	9.03283	-627.04340	-690.13300	12.18986	487.03506	716.66028	10.83834	589.36285	11.09955	667.79797	-975.85748	
4436	44.350	-759.60211	11.22271	-651.50275	807.63300	9.49354	-626.96185	-690.88867	11.98040	487.09174	715.77118	10.56691	589.05365	28.15909	739.27753	-962.93079	
4437	44.360	-760.69458	11.78972	-651.44525	806.96918	9.82455	-626.93414	-691.67572	11.69349	487.24442	714.92773	10.18037	589.52759	27.43920	739.77344	-962.41376	
4438	44.370	-761.19116	11.97344	-651.38300	806.00989	10.32428	-626.85059	-692.64355	11.40931	487.34909	714.10840	9.80244	589.62463	26.63851	740.31396	-961.83728	
4439	44.380	-762.04962	12.37517	-651.20032	805.28339	10.70081	-626.74207	-693.31293	11.25100	487.39221	713.27368	9.43018	589.58539	25.64952	741.01935	-960.99872	
4440	44.390	-762.95117	12.70619	-651.11176	804.39539	10.96800	-626.66705	-694.44067	10.98102	487.42947	712.48163	9.24136	589.73090	24.95395	741.38422	-960.23737	
4441	44.400	-763.75232	13.01761	-651.20441	803.46515	11.38382	-626.56683	-695.15851	10.85822	487.47409	711.49536	8.85939	589.70801	35.44684	693.47211	-967.81317	
4442	44.410	-764.73053	13.45667	-651.01483	802.67969	11.66985	-626.42999	-696.02844	10.57140	487.47931	710.73999	8.55812	589.68988	38.23589	677.52185	-969.99005	
4443	44.420	-765.52380	13.78144	-650.81128	801.86707	12.12830	-626.34698	-696.97266	10.35393	487.50586	709.88464	8.20759	589.84363	22.02972	743.15643	-958.30243	
4444	44.430	-766.33771	14.18672	-650.76788	800.83167	12.53263	-626.35895	-697.73975	10.14500	487.64276	708.93951	8.04203	589.91302	21.04188	743.66821	-957.87836	
4445	44.440	-767.50641	14.75980	-650.77563	799.94220	12.82125	-626.22644	-698.69446	9.73807	487.76050	707.99805	7.62294	590.05566	20.15889	744.20178	-957.37537	
4446	44.450	-768.42914	15.13733	-650.70990	799.05072	13.26471	-626.23700	-699.60114	9.56563	487.86993	707.11151	7.24090	590.07129	19.26113	745.03552	-957.07281	
4447	44.460	-769.04236	15.46800	-650.54797	798.08545	13.75429	-626.12402	-700.50238	9.11639	488.00165	706.17957	6.82730	590.12183	18.47243	745.66620	-956.73834	
4448	44.470	-769.82965	15.90772	-650.50787	797.23468	14.22249	-625.98413	-701.44055	8.90936	488.14139	705.35498	6.73723	590.40088	34.58570	679.61481	-968.01129	
4449	44.480	-771.08960	16.48788	-650.36896	796.44183	14.66204	-625.92224	-702.40613	8.67014	488.12259	704.42926	6.29881	590.49438	16.83778	746.91425	-955.90948	
